<svg width="36" height="36" viewBox="0 0 36 36" fill="none" xmlns="http://www.w3.org/2000/svg">
<g clip-path="url(#clip0_365_2255)">
<path d="M35.25 9.76061C35.0461 9.03346 34.649 8.37513 34.1009 7.85561C33.5374 7.32012 32.8466 6.93707 32.0939 6.74261C29.277 6.00011 17.9909 6.00011 17.9909 6.00011C13.2859 5.94658 8.58209 6.18203 3.90595 6.70511C3.15323 6.91393 2.46379 7.30554 1.89895 7.84511C1.34395 8.37911 0.941949 9.03761 0.731949 9.75911C0.227489 12.4767 -0.0176128 15.2361 -5.07877e-05 18.0001C-0.0180508 20.7616 0.226449 23.5201 0.731949 26.2411C0.937449 26.9596 1.33795 27.6151 1.89445 28.1446C2.45095 28.6741 3.14395 29.0566 3.90595 29.2591C6.76045 30.0001 17.9909 30.0001 17.9909 30.0001C22.7019 30.0537 27.4118 29.8183 32.0939 29.2951C32.8466 29.1007 33.5374 28.7176 34.1009 28.1821C34.6559 27.6526 35.0504 26.9941 35.2485 26.2771C35.7661 23.5605 36.0178 20.8 36 18.0346C36.0389 15.2575 35.7875 12.484 35.25 9.75911V9.76061ZM14.4029 23.1361V12.8656L23.7929 18.0016L14.4029 23.1361Z" fill="#1E272E"/>
</g>
<defs>
<clipPath id="clip0_365_2255">
<rect width="36" height="36" fill="white"/>
</clipPath>
</defs>
</svg>
