<svg width="36" height="36" viewBox="0 0 36 36" fill="none" xmlns="http://www.w3.org/2000/svg">
<path d="M30.84 3H4.16C3.51837 3 3 3.51837 3 4.16V30.84C3 31.4816 3.51837 32 4.16 32H30.84C31.4816 32 32 31.4816 32 30.84V4.16C32 3.51837 31.4816 3 30.84 3ZM27.4905 11.4644H25.1741C23.358 11.4644 23.0064 12.3271 23.0064 13.5959V16.3908H27.3419L26.7764 20.7661H23.0064V32H18.486V20.7698H14.7051V16.3908H18.486V13.1645C18.486 9.41987 20.7734 7.379 24.1156 7.379C25.7179 7.379 27.0918 7.49863 27.4941 7.553V11.4644H27.4905Z" fill="#1E272E"/>
</svg>
