<svg width="30" height="30" viewBox="0 0 30 30" fill="none" xmlns="http://www.w3.org/2000/svg">
<g clip-path="url(#clip0_365_2269)">
<path d="M13.8438 29.3947C5.33027 17.0526 3.75 15.7859 3.75 11.25C3.75 5.03678 8.78678 0 15 0C21.2132 0 26.25 5.03678 26.25 11.25C26.25 15.7859 24.6697 17.0526 16.1562 29.3947C15.5975 30.2018 14.4025 30.2017 13.8438 29.3947ZM15 15.9375C17.5888 15.9375 19.6875 13.8388 19.6875 11.25C19.6875 8.66115 17.5888 6.5625 15 6.5625C12.4112 6.5625 10.3125 8.66115 10.3125 11.25C10.3125 13.8388 12.4112 15.9375 15 15.9375Z" fill="#1E272E"/>
</g>
<defs>
<clipPath id="clip0_365_2269">
<rect width="30" height="30" fill="white"/>
</clipPath>
</defs>
</svg>
