<svg width="36" height="36" viewBox="0 0 36 36" fill="none" xmlns="http://www.w3.org/2000/svg">
<path d="M18.0001 13.3137C15.4196 13.3137 13.3137 15.4195 13.3137 18C13.3137 20.5805 15.4196 22.6863 18.0001 22.6863C20.5805 22.6863 22.6864 20.5805 22.6864 18C22.6864 15.4195 20.5805 13.3137 18.0001 13.3137ZM32.0555 18C32.0555 16.0594 32.0731 14.1363 31.9641 12.1992C31.8551 9.94924 31.3419 7.95236 29.6965 6.30705C28.0477 4.65822 26.0544 4.14846 23.8044 4.03947C21.8637 3.93049 19.9407 3.94807 18.0036 3.94807C16.0629 3.94807 14.1399 3.93049 12.2028 4.03947C9.95278 4.14846 7.95591 4.66174 6.31059 6.30705C4.66176 7.95588 4.152 9.94924 4.04301 12.1992C3.93403 14.1399 3.95161 16.0629 3.95161 18C3.95161 19.9371 3.93403 21.8637 4.04301 23.8008C4.152 26.0508 4.66528 28.0477 6.31059 29.693C7.95942 31.3418 9.95278 31.8516 12.2028 31.9606C14.1434 32.0695 16.0665 32.052 18.0036 32.052C19.9442 32.052 21.8672 32.0695 23.8044 31.9606C26.0544 31.8516 28.0512 31.3383 29.6965 29.693C31.3454 28.0441 31.8551 26.0508 31.9641 23.8008C32.0766 21.8637 32.0555 19.9406 32.0555 18ZM18.0001 25.2106C14.0098 25.2106 10.7895 21.9902 10.7895 18C10.7895 14.0098 14.0098 10.7895 18.0001 10.7895C21.9903 10.7895 25.2106 14.0098 25.2106 18C25.2106 21.9902 21.9903 25.2106 18.0001 25.2106ZM25.5059 12.1781C24.5743 12.1781 23.8219 11.4258 23.8219 10.4942C23.8219 9.56252 24.5743 8.81017 25.5059 8.81017C26.4376 8.81017 27.1899 9.56252 27.1899 10.4942C27.1902 10.7154 27.1468 10.9345 27.0623 11.1389C26.9778 11.3434 26.8537 11.5291 26.6973 11.6855C26.5409 11.842 26.3551 11.966 26.1507 12.0505C25.9462 12.1351 25.7271 12.1784 25.5059 12.1781Z" fill="#1E272E"/>
</svg>
