<svg width="30" height="30" viewBox="0 0 30 30" fill="none" xmlns="http://www.w3.org/2000/svg">
<g clip-path="url(#clip0_365_2271)">
<path d="M29.1439 21.1992L22.5814 18.3867C22.3011 18.2672 21.9895 18.242 21.6936 18.3149C21.3977 18.3879 21.1336 18.5549 20.9408 18.791L18.0346 22.3418C13.4735 20.1912 9.80285 16.5206 7.65234 11.9595L11.2031 9.05328C11.4397 8.8609 11.6071 8.5967 11.68 8.30067C11.753 8.00464 11.7275 7.6929 11.6074 7.41265L8.79492 0.850152C8.66315 0.548048 8.4301 0.30139 8.13595 0.15271C7.8418 0.00403036 7.50499 -0.0373518 7.18359 0.0356992L1.08984 1.44195C0.779982 1.5135 0.503523 1.68797 0.305587 1.93688C0.107651 2.18579 -7.13795e-05 2.49444 3.54856e-08 2.81246C3.54856e-08 17.8418 12.1816 30 27.1875 30C27.5056 30.0002 27.8144 29.8925 28.0634 29.6945C28.3125 29.4966 28.487 29.2201 28.5586 28.9101L29.9648 22.8164C30.0374 22.4934 29.9952 22.1552 29.8453 21.8601C29.6955 21.5649 29.4475 21.3312 29.1439 21.1992Z" fill="#1E272E"/>
</g>
<defs>
<clipPath id="clip0_365_2271">
<rect width="30" height="30" fill="white"/>
</clipPath>
</defs>
</svg>
